<svg class="svg-icon" style="width: 1em; height: 1em;vertical-align: middle;fill: currentColor;overflow: hidden;" viewBox="0 0 1024 1024" version="1.1" xmlns="http://www.w3.org/2000/svg"><path d="M480.392533 31.675733a477.866667 477.866667 0 1 0 0 955.733334 477.866667 477.866667 0 0 0 0-955.733334m0 51.2a427.144533 427.144533 0 0 1 426.666667 426.666667 427.144533 427.144533 0 0 1-426.666667 426.666667 427.144533 427.144533 0 0 1-426.666666-426.666667 427.144533 427.144533 0 0 1 426.666666-426.666667" fill="#34FE0A" /><path d="M258.184533 323.515733a25.6 25.6 0 1 1 36.181334-36.181333l408.234666 408.234667a25.6 25.6 0 1 1-36.181333 36.181333l-408.234667-408.234667z" fill="#34FE0A" /><path d="M294.365867 731.7504a25.6 25.6 0 1 1-36.181334-36.181333l408.234667-408.234667a25.6 25.6 0 1 1 36.181333 36.181333l-408.234666 408.234667z" fill="#34FE0A" /></svg>